<svg width="1973" height="1980" viewBox="0 0 1973 1980" fill="none" xmlns="http://www.w3.org/2000/svg">
<mask id="path-1-outside-1_1151_5511" maskUnits="userSpaceOnUse" x="114" y="0" width="1746" height="1550" fill="black">
<rect fill="white" x="114" width="1746" height="1550"/>
<path d="M978.318 85.1942C982.157 78.4761 991.843 78.4761 995.682 85.1943L1387 770H587L978.318 85.1942Z"/>
<path d="M849.294 404.265C846.386 514.388 863.513 578.27 971.358 646.924C978.768 651.641 982.473 654 986.94 654C991.408 654 995.113 651.641 1002.52 646.924C1110.38 578.27 1127.6 514.387 1124.71 404.264C1124.35 390.476 1124.17 383.582 1119.77 379.263C1115.36 374.943 1108.12 374.871 1093.63 374.726C1053.09 374.321 1028.01 369.81 1003.22 358C994.824 354.001 990.626 352.001 987.162 352C983.699 351.999 979.496 353.997 971.091 357.993C946.236 369.81 920.991 374.323 880.375 374.727C865.888 374.871 858.644 374.943 854.242 379.262C849.84 383.58 849.658 390.475 849.294 404.265Z"/>
<path d="M864.52 417.133C862.34 513.772 877.997 570.616 971.24 631.325C978.674 636.165 982.391 638.585 986.944 638.585C991.496 638.585 995.213 636.165 1002.65 631.325C1095.9 570.616 1111.64 513.772 1109.48 417.133C1109.17 403.405 1109.02 396.541 1104.65 392.208C1100.28 387.874 1092.99 387.75 1078.41 387.501C1045.4 386.938 1024.11 383.041 1003.41 373.438C994.819 369.453 990.523 367.46 987.142 367.459C983.761 367.457 979.459 369.448 970.857 373.43C950.095 383.041 928.673 386.94 895.589 387.502C881.011 387.75 873.721 387.873 869.353 392.206C864.984 396.538 864.83 403.403 864.52 417.133Z"/>
<path d="M987 638.323C987 638.352 987.024 638.378 987.053 638.378C991.605 638.378 995.322 635.959 1002.76 631.119C1096 570.41 1111.66 513.565 1109.48 416.927C1109.17 403.198 1109.01 396.333 1104.64 392C1100.28 387.668 1092.99 387.542 1078.41 387.295C1045.33 386.732 1023.9 382.835 1003.14 373.225C1000.64 372.067 998.502 371.078 996.645 370.257C991.535 367.999 987 371.834 987 377.421V638.323Z"/>
<path d="M587 770L987 1470H204.232C196.554 1470 191.74 1461.71 195.549 1455.04L587 770Z"/>
<path d="M653.938 1125.52C653.938 1088.13 623.864 1058 587.002 1058C550.14 1058 520.064 1088.12 520.064 1125.52V1194.77C520.064 1200.29 524.542 1204.77 530.064 1204.77H643.938C649.46 1204.77 653.938 1200.29 653.938 1194.77V1125.52ZM685.938 1226.77C685.938 1232.29 681.46 1236.77 675.938 1236.77H498.064C492.542 1236.77 488.064 1232.29 488.064 1226.77V1125.52C488.064 1070.66 532.255 1026 587.002 1026C641.749 1026 685.938 1070.67 685.938 1125.52V1226.77Z"/>
<path d="M461 1188.92C461 1171.25 475.327 1156.92 493 1156.92H681C698.673 1156.92 713 1171.25 713 1188.92V1342C713 1359.67 698.673 1374 681 1374H493C475.327 1374 461 1359.67 461 1342V1188.92Z"/>
<path d="M587 1220.77C604.617 1220.77 618.899 1235.06 618.899 1252.69C618.899 1261.34 615.462 1269.18 609.881 1274.93C607.692 1277.19 606.14 1280.08 606.14 1283.22V1314.93C606.14 1314.94 606.135 1314.94 606.13 1314.94C606.125 1314.94 606.121 1314.95 606.12 1314.95C605.68 1324.71 597.289 1332.5 587 1332.5C576.712 1332.5 568.321 1324.71 567.88 1314.95C567.88 1314.95 567.876 1314.94 567.871 1314.94C567.865 1314.94 567.861 1314.94 567.861 1314.93V1283.22C567.861 1280.08 566.309 1277.19 564.119 1274.93C558.538 1269.18 555.102 1261.34 555.102 1252.69C555.102 1235.06 569.383 1220.77 587 1220.77Z"/>
<path d="M1387 770L1778.45 1455.04C1782.26 1461.71 1777.45 1470 1769.77 1470H987L1387 770Z"/>
<path d="M1241.96 1136V1179.7C1241.96 1189.64 1250.02 1197.7 1259.96 1197.7H1509.26C1519.2 1197.7 1527.26 1189.64 1527.26 1179.7V1154.81C1527.26 1144.86 1519.2 1136.81 1509.26 1136.81H1366.39C1361.63 1136.81 1357.07 1134.92 1353.69 1131.57L1345.33 1123.24C1341.95 1119.88 1337.39 1118 1332.63 1118H1259.96C1250.02 1118 1241.96 1126.06 1241.96 1136Z"/>
<path d="M1253.66 1168.24C1253.66 1158.3 1261.72 1150.24 1271.66 1150.24H1498.46C1508.4 1150.24 1516.46 1158.3 1516.46 1168.24V1185.97C1516.46 1195.91 1508.4 1203.97 1498.46 1203.97H1271.66C1261.72 1203.97 1253.66 1195.91 1253.66 1185.97V1168.24Z"/>
<path d="M1528.86 1341.84C1527.92 1351.02 1520.19 1358 1510.96 1358H1259.16C1249.93 1358 1242.2 1351.02 1241.26 1341.84L1225.1 1184.41C1224.01 1173.79 1232.33 1164.57 1243 1164.57H1527.12C1537.79 1164.57 1546.11 1173.79 1545.02 1184.41L1528.86 1341.84Z"/>
</mask>
<path d="M978.318 85.1942C982.157 78.4761 991.843 78.4761 995.682 85.1943L1387 770H587L978.318 85.1942Z" fill="#0087CA"/>
<path d="M849.294 404.265C846.386 514.388 863.513 578.27 971.358 646.924C978.768 651.641 982.473 654 986.94 654C991.408 654 995.113 651.641 1002.52 646.924C1110.38 578.27 1127.6 514.387 1124.71 404.264C1124.35 390.476 1124.17 383.582 1119.77 379.263C1115.36 374.943 1108.12 374.871 1093.63 374.726C1053.09 374.321 1028.01 369.81 1003.22 358C994.824 354.001 990.626 352.001 987.162 352C983.699 351.999 979.496 353.997 971.091 357.993C946.236 369.81 920.991 374.323 880.375 374.727C865.888 374.871 858.644 374.943 854.242 379.262C849.84 383.58 849.658 390.475 849.294 404.265Z" fill="#0087CA"/>
<path d="M864.52 417.133C862.34 513.772 877.997 570.616 971.24 631.325C978.674 636.165 982.391 638.585 986.944 638.585C991.496 638.585 995.213 636.165 1002.65 631.325C1095.9 570.616 1111.64 513.772 1109.48 417.133C1109.17 403.405 1109.02 396.541 1104.65 392.208C1100.28 387.874 1092.99 387.75 1078.41 387.501C1045.4 386.938 1024.11 383.041 1003.41 373.438C994.819 369.453 990.523 367.46 987.142 367.459C983.761 367.457 979.459 369.448 970.857 373.43C950.095 383.041 928.673 386.94 895.589 387.502C881.011 387.75 873.721 387.873 869.353 392.206C864.984 396.538 864.83 403.403 864.52 417.133Z" fill="#0087CA"/>
<path d="M987 638.323C987 638.352 987.024 638.378 987.053 638.378C991.605 638.378 995.322 635.959 1002.76 631.119C1096 570.41 1111.66 513.565 1109.48 416.927C1109.17 403.198 1109.01 396.333 1104.64 392C1100.28 387.668 1092.99 387.542 1078.41 387.295C1045.33 386.732 1023.9 382.835 1003.14 373.225C1000.64 372.067 998.502 371.078 996.645 370.257C991.535 367.999 987 371.834 987 377.421V638.323Z" fill="#0087CA"/>
<path d="M587 770L987 1470H204.232C196.554 1470 191.74 1461.71 195.549 1455.04L587 770Z" fill="#0087CA"/>
<path d="M653.938 1125.52C653.938 1088.13 623.864 1058 587.002 1058C550.14 1058 520.064 1088.12 520.064 1125.52V1194.77C520.064 1200.29 524.542 1204.77 530.064 1204.77H643.938C649.46 1204.77 653.938 1200.29 653.938 1194.77V1125.52ZM685.938 1226.77C685.938 1232.29 681.46 1236.77 675.938 1236.77H498.064C492.542 1236.77 488.064 1232.29 488.064 1226.77V1125.52C488.064 1070.66 532.255 1026 587.002 1026C641.749 1026 685.938 1070.67 685.938 1125.52V1226.77Z" fill="#0087CA"/>
<path d="M461 1188.92C461 1171.25 475.327 1156.92 493 1156.92H681C698.673 1156.92 713 1171.25 713 1188.92V1342C713 1359.67 698.673 1374 681 1374H493C475.327 1374 461 1359.67 461 1342V1188.92Z" fill="#0087CA"/>
<path d="M587 1220.77C604.617 1220.77 618.899 1235.06 618.899 1252.69C618.899 1261.34 615.462 1269.18 609.881 1274.93C607.692 1277.19 606.14 1280.08 606.14 1283.22V1314.93C606.14 1314.94 606.135 1314.94 606.13 1314.94C606.125 1314.94 606.121 1314.95 606.12 1314.95C605.68 1324.71 597.289 1332.5 587 1332.5C576.712 1332.5 568.321 1324.71 567.88 1314.95C567.88 1314.95 567.876 1314.94 567.871 1314.94C567.865 1314.94 567.861 1314.94 567.861 1314.93V1283.22C567.861 1280.08 566.309 1277.19 564.119 1274.93C558.538 1269.18 555.102 1261.34 555.102 1252.69C555.102 1235.06 569.383 1220.77 587 1220.77Z" fill="#0087CA"/>
<path d="M1387 770L1778.45 1455.04C1782.26 1461.71 1777.45 1470 1769.77 1470H987L1387 770Z" fill="#0087CA"/>
<path d="M1241.96 1136V1179.7C1241.96 1189.64 1250.02 1197.7 1259.96 1197.7H1509.26C1519.2 1197.7 1527.26 1189.64 1527.26 1179.7V1154.81C1527.26 1144.86 1519.2 1136.81 1509.26 1136.81H1366.39C1361.63 1136.81 1357.07 1134.92 1353.69 1131.57L1345.33 1123.24C1341.95 1119.88 1337.39 1118 1332.63 1118H1259.96C1250.02 1118 1241.96 1126.06 1241.96 1136Z" fill="#0087CA"/>
<path d="M1253.66 1168.24C1253.66 1158.3 1261.72 1150.24 1271.66 1150.24H1498.46C1508.4 1150.24 1516.46 1158.3 1516.46 1168.24V1185.97C1516.46 1195.91 1508.4 1203.97 1498.46 1203.97H1271.66C1261.72 1203.97 1253.66 1195.91 1253.66 1185.97V1168.24Z" fill="#0087CA"/>
<path d="M1528.86 1341.84C1527.92 1351.02 1520.19 1358 1510.96 1358H1259.16C1249.93 1358 1242.2 1351.02 1241.26 1341.84L1225.1 1184.41C1224.01 1173.79 1232.33 1164.57 1243 1164.57H1527.12C1537.79 1164.57 1546.11 1173.79 1545.02 1184.41L1528.86 1341.84Z" fill="#0087CA"/>
<path d="M971.358 646.924L928.396 714.409L928.396 714.409L971.358 646.924ZM849.294 404.265L929.266 406.376L929.266 406.376L849.294 404.265ZM880.375 374.727L881.17 454.723L880.375 374.727ZM971.091 357.993L936.74 285.744L936.74 285.744L971.091 357.993ZM1002.52 646.924L959.565 579.437L959.565 579.437L1002.52 646.924ZM1124.71 404.264L1204.68 402.164L1124.71 404.264ZM1093.63 374.726L1094.43 294.73L1094.43 294.73L1093.63 374.726ZM1003.22 358L968.814 430.224L968.814 430.224L1003.22 358ZM1119.77 379.263L1063.74 436.365L1063.74 436.365L1119.77 379.263ZM987.162 352L987.192 272L987.162 352ZM854.242 379.262L798.218 322.154L798.218 322.154L854.242 379.262ZM986.94 654L986.939 734L986.939 734L986.94 654ZM971.24 631.325L927.591 698.367L927.591 698.367L971.24 631.325ZM864.52 417.133L784.54 415.328L784.54 415.328L864.52 417.133ZM895.589 387.502L894.23 307.513L894.23 307.513L895.589 387.502ZM970.857 373.43L937.251 300.831L937.251 300.831L970.857 373.43ZM1002.65 631.325L959.001 564.281L959.001 564.281L1002.65 631.325ZM1109.48 417.133L1029.5 418.925L1109.48 417.133ZM1078.41 387.501L1079.77 307.513L1079.77 307.513L1078.41 387.501ZM1003.41 373.438L1037.07 300.866L1037.07 300.866L1003.41 373.438ZM987.142 367.459L987.11 447.459L987.11 447.459L987.142 367.459ZM869.353 392.206L813.018 335.405L813.018 335.405L869.353 392.206ZM986.944 638.585L986.946 558.585L986.945 558.585L986.944 638.585ZM987.053 638.378L987.052 718.378L987.054 718.378L987.053 638.378ZM1002.76 631.119L1046.41 698.161L1046.41 698.161L1002.76 631.119ZM1109.48 416.927L1189.46 415.122L1189.46 415.122L1109.48 416.927ZM1104.64 392L1160.98 335.202L1160.98 335.199L1104.64 392ZM1078.41 387.295L1079.77 307.306L1079.77 307.306L1078.41 387.295ZM1003.14 373.225L969.535 445.824L969.535 445.824L1003.14 373.225ZM587.002 1058L587.003 978H587.002V1058ZM587.002 1026L587.003 946H587.002V1026ZM1345.33 1123.24L1288.9 1179.95L1288.9 1179.95L1345.33 1123.24ZM1353.69 1131.57L1410.12 1074.86L1410.12 1074.86L1353.69 1131.57ZM1545.02 1184.41L1624.61 1192.57L1624.61 1192.57L1545.02 1184.41ZM1225.1 1184.41L1145.51 1192.57L1145.51 1192.57L1225.1 1184.41ZM1241.26 1341.84L1320.84 1333.67L1320.84 1333.67L1241.26 1341.84ZM1528.86 1341.84L1449.28 1333.67L1449.28 1333.67L1528.86 1341.84ZM567.88 1314.95L487.961 1318.56L487.961 1318.56L567.88 1314.95ZM195.549 1455.04L265.009 1494.73L195.549 1455.04ZM606.12 1314.95L686.039 1318.56L606.12 1314.95ZM996.645 370.257L1028.98 297.085L996.645 370.257ZM609.881 1274.93L552.481 1219.21L609.881 1274.93ZM1778.45 1455.04L1708.99 1494.73L1778.45 1455.04ZM564.119 1274.93L506.719 1330.66L564.119 1274.93ZM995.682 85.1943L1065.14 45.5031L995.682 85.1943ZM978.318 85.1942L908.858 45.5031L978.318 85.1942ZM995.682 85.1943L926.223 124.885L1317.54 809.691L1387 770L1456.46 730.309L1065.14 45.5031L995.682 85.1943ZM1387 770V690H587V770V850H1387V770ZM587 770L656.459 809.691L1047.78 124.885L978.318 85.1942L908.858 45.5031L517.541 730.309L587 770ZM971.358 646.924L1014.32 579.438C968.219 550.091 950.454 527.49 941.636 508.07C932.02 486.892 927.888 458.537 929.266 406.376L849.294 404.265L769.322 402.153C767.791 460.115 770.77 518.763 795.951 574.221C821.931 631.436 866.652 675.103 928.396 714.409L971.358 646.924ZM880.375 374.727L881.17 454.723C927.898 454.258 966.061 448.966 1005.44 430.243L971.091 357.993L936.74 285.744C926.412 290.654 914.083 294.388 879.58 294.731L880.375 374.727ZM1002.52 646.924L1045.48 714.411C1107.22 675.113 1151.96 631.46 1177.97 574.264C1203.19 518.807 1206.21 460.159 1204.68 402.164L1124.71 404.264L1044.74 406.365C1046.11 458.493 1041.96 486.847 1032.32 508.026C1023.48 527.466 1005.68 550.081 959.565 579.437L1002.52 646.924ZM1093.63 374.726L1094.43 294.73C1060.05 294.387 1047.89 290.669 1037.62 285.776L1003.22 358L968.814 430.224C1008.13 448.951 1046.13 454.256 1092.83 454.722L1093.63 374.726ZM1124.71 404.264L1204.68 402.164C1204.56 397.505 1204.43 386.019 1202.74 375.518C1200.66 362.613 1194.91 340.914 1175.79 322.161L1119.77 379.263L1063.74 436.365C1057 429.756 1052.19 422.299 1049.03 415.073C1046.13 408.438 1045.12 403.112 1044.77 400.908C1044.42 398.772 1044.43 397.794 1044.51 399.265C1044.58 400.703 1044.64 402.621 1044.74 406.365L1124.71 404.264ZM1093.63 374.726L1092.83 454.722C1096.74 454.761 1098.86 454.787 1100.49 454.843C1102.16 454.899 1101.43 454.938 1099.54 454.677C1095.61 454.135 1078.96 451.299 1063.74 436.365L1119.77 379.263L1175.79 322.161C1156.17 302.907 1133.69 297.875 1121.42 296.181C1111 294.742 1099.51 294.781 1094.43 294.73L1093.63 374.726ZM971.091 357.993L1005.44 430.243C1007.68 429.178 1009.01 428.548 1010.07 428.059C1011.15 427.564 1011.05 427.637 1010.32 427.925C1009.62 428.2 1007.15 429.155 1003.52 430.048C999.707 430.989 994.069 432.003 987.133 432L987.162 352L987.192 272C970.368 271.994 957.282 276.848 951.643 279.07C945.96 281.31 939.91 284.236 936.74 285.744L971.091 357.993ZM1003.22 358L1037.62 285.776C1034.46 284.269 1028.41 281.338 1022.73 279.094C1017.09 276.866 1004.01 272.006 987.192 272L987.162 352L987.133 432C980.202 431.997 974.567 430.981 970.752 430.038C967.127 429.141 964.654 428.184 963.953 427.907C963.221 427.618 963.114 427.544 964.191 428.04C965.251 428.528 966.578 429.159 968.814 430.224L1003.22 358ZM849.294 404.265L929.266 406.376C929.365 402.632 929.421 400.714 929.495 399.275C929.571 397.804 929.582 398.781 929.238 400.916C928.884 403.119 927.87 408.444 924.973 415.078C921.816 422.303 917.004 429.759 910.266 436.369L854.242 379.262L798.218 322.154C779.102 340.907 773.344 362.605 771.269 375.507C769.58 386.008 769.445 397.493 769.322 402.153L849.294 404.265ZM880.375 374.727L879.58 294.731C874.496 294.781 863.012 294.741 852.588 296.18C840.319 297.874 817.84 302.904 798.218 322.154L854.242 379.262L910.266 436.369C895.046 451.301 878.39 454.136 874.465 454.677C872.576 454.938 871.84 454.9 873.512 454.843C875.141 454.788 877.266 454.762 881.17 454.723L880.375 374.727ZM971.358 646.924L928.396 714.409C930.626 715.829 937.734 720.49 945.1 724.094C954.595 728.738 968.851 734 986.939 734L986.94 654L986.942 574C993.182 574 999.124 574.867 1004.53 576.327C1009.65 577.709 1013.41 579.39 1015.41 580.368C1017.28 581.285 1018.29 581.929 1017.76 581.606C1017.2 581.27 1016.38 580.753 1014.32 579.438L971.358 646.924ZM1002.52 646.924L959.565 579.437C957.499 580.752 956.679 581.269 956.125 581.605C955.592 581.928 956.602 581.284 958.478 580.367C960.477 579.389 964.237 577.709 969.354 576.326C974.759 574.866 980.701 574 986.942 574L986.94 654L986.939 734C1005.03 734 1019.28 728.739 1028.78 724.095C1036.15 720.492 1043.25 715.831 1045.48 714.411L1002.52 646.924ZM971.24 631.325L1014.89 564.282C976.164 539.068 961.969 520.197 955.008 504.781C947.289 487.684 943.481 464.091 944.499 418.937L864.52 417.133L784.54 415.328C783.379 466.814 786.309 519.962 809.184 570.624C832.818 622.967 873.074 662.872 927.591 698.367L971.24 631.325ZM895.589 387.502L896.948 467.49C936.211 466.823 969.882 462.037 1004.46 446.03L970.857 373.43L937.251 300.831C930.307 304.045 921.134 307.056 894.23 307.513L895.589 387.502ZM1002.65 631.325L1046.29 698.369C1100.8 662.883 1141.07 622.991 1164.74 570.667C1187.65 520.006 1190.61 466.857 1189.46 415.341L1109.48 417.133L1029.5 418.925C1030.51 464.048 1026.68 487.639 1018.95 504.738C1011.97 520.173 997.744 539.058 959.001 564.281L1002.65 631.325ZM1078.41 387.501L1079.77 307.513C1052.99 307.056 1043.96 304.06 1037.07 300.866L1003.41 373.438L969.748 446.011C1004.26 462.022 1037.81 466.82 1077.04 467.49L1078.41 387.501ZM1109.48 417.133L1189.46 415.341C1189.35 410.71 1189.26 399.249 1187.62 388.758C1185.6 375.847 1179.93 354.205 1160.99 335.413L1104.65 392.208L1048.31 449.002C1041.63 442.384 1036.87 434.932 1033.75 427.709C1030.89 421.074 1029.9 415.751 1029.55 413.537C1029.21 411.394 1029.23 410.407 1029.3 411.865C1029.37 413.291 1029.41 415.196 1029.5 418.925L1109.48 417.133ZM1078.41 387.501L1077.04 467.49C1080.97 467.556 1083.12 467.598 1084.78 467.666C1086.49 467.735 1085.79 467.77 1083.95 467.505C1080.21 466.967 1063.51 464.086 1048.31 449.002L1104.65 392.208L1160.99 335.413C1141.41 315.996 1118.88 310.886 1106.77 309.14C1096.39 307.645 1084.92 307.601 1079.77 307.513L1078.41 387.501ZM970.857 373.43L1004.46 446.03C1006.74 444.974 1008.14 444.327 1009.28 443.82C1010.43 443.305 1010.43 443.329 1009.82 443.564C1009.26 443.78 1006.92 444.673 1003.45 445.525C999.828 446.414 994.175 447.461 987.11 447.459L987.142 367.459L987.173 287.459C970.411 287.452 957.324 292.316 952.097 294.338C946.546 296.485 940.566 299.297 937.251 300.831L970.857 373.43ZM1003.41 373.438L1037.07 300.866C1033.77 299.331 1027.79 296.515 1022.24 294.363C1017.01 292.335 1003.93 287.465 987.173 287.459L987.142 367.459L987.11 447.459C980.05 447.456 974.402 446.406 970.777 445.513C967.306 444.659 964.968 443.764 964.406 443.546C963.797 443.31 963.795 443.285 964.943 443.8C966.071 444.307 967.47 444.954 969.748 446.011L1003.41 373.438ZM864.52 417.133L944.499 418.937C944.584 415.208 944.632 413.303 944.7 411.876C944.77 410.417 944.784 411.403 944.448 413.545C944.1 415.758 943.107 421.08 940.243 427.714C937.124 434.936 932.361 442.388 925.688 449.007L869.353 392.206L813.018 335.405C794.071 354.196 788.406 375.838 786.381 388.746C784.735 399.236 784.645 410.697 784.54 415.328L864.52 417.133ZM895.589 387.502L894.23 307.513C889.084 307.601 877.619 307.644 867.239 309.139C855.124 310.884 832.593 315.991 813.018 335.405L869.353 392.206L925.688 449.007C910.481 464.088 893.779 466.968 890.045 467.505C888.203 467.771 887.508 467.735 889.21 467.666C890.868 467.598 893.024 467.557 896.948 467.49L895.589 387.502ZM971.24 631.325L927.591 698.367C929.807 699.81 936.997 704.636 944.483 708.368C954.19 713.206 968.632 718.584 986.942 718.585L986.944 638.585L986.945 558.585C993.219 558.585 999.233 559.463 1004.74 560.971C1009.96 562.401 1013.8 564.144 1015.86 565.172C1017.79 566.134 1018.84 566.814 1018.32 566.492C1017.78 566.156 1016.97 565.634 1014.89 564.282L971.24 631.325ZM1002.65 631.325L959.001 564.281C956.925 565.632 956.114 566.155 955.571 566.491C955.052 566.813 956.098 566.133 958.028 565.171C960.089 564.143 963.927 562.4 969.147 560.971C974.657 559.462 980.672 558.585 986.946 558.585L986.944 638.585L986.942 718.585C1005.25 718.585 1019.7 713.207 1029.4 708.369C1036.89 704.638 1044.08 699.812 1046.29 698.369L1002.65 631.325ZM987.053 638.378L987.054 718.378C1005.36 718.377 1019.8 713.003 1029.51 708.165C1037 704.433 1044.19 699.607 1046.41 698.161L1002.76 631.119L959.106 564.076C957.032 565.427 956.223 565.949 955.681 566.284C955.163 566.605 956.211 565.924 958.142 564.961C960.203 563.934 964.042 562.191 969.26 560.763C974.769 559.255 980.781 558.378 987.051 558.378L987.053 638.378ZM1002.76 631.119L1046.41 698.161C1100.92 662.666 1141.18 622.761 1164.81 570.418C1187.69 519.756 1190.62 466.607 1189.46 415.122L1109.48 416.927L1029.5 418.731C1030.52 463.885 1026.71 487.478 1018.99 504.575C1012.03 519.991 997.832 538.862 959.106 564.076L1002.76 631.119ZM1109.48 416.927L1189.46 415.122C1189.35 410.492 1189.26 399.032 1187.62 388.543C1185.59 375.638 1179.93 353.995 1160.98 335.202L1104.64 392L1048.31 448.798C1041.63 442.178 1036.87 434.726 1033.75 427.504C1030.89 420.87 1029.9 415.549 1029.55 413.336C1029.21 411.195 1029.23 410.21 1029.3 411.669C1029.36 413.096 1029.41 415.002 1029.5 418.731L1109.48 416.927ZM1104.64 392L1160.98 335.199C1141.41 315.789 1118.88 310.679 1106.76 308.933C1096.38 307.437 1084.92 307.394 1079.77 307.306L1078.41 387.295L1077.05 467.283C1080.97 467.35 1083.13 467.391 1084.78 467.459C1086.48 467.528 1085.79 467.563 1083.95 467.298C1080.21 466.76 1063.51 463.879 1048.31 448.802L1104.64 392ZM1078.41 387.295L1079.77 307.306C1052.86 306.849 1043.69 303.838 1036.75 300.625L1003.14 373.225L969.535 445.824C1004.12 461.832 1037.79 466.616 1077.05 467.283L1078.41 387.295ZM1003.14 373.225L1036.75 300.625C1034.44 299.556 1031.61 298.245 1028.98 297.085L996.645 370.257L964.306 443.429C965.395 443.911 966.843 444.578 969.535 445.824L1003.14 373.225ZM987 377.421H907V638.323H987H1067V377.421H987ZM587 770L517.541 809.691L917.54 1509.69L987 1470L1056.46 1430.31L656.459 730.309L587 770ZM987 1470V1390H204.232V1470V1550H987V1470ZM195.549 1455.04L265.009 1494.73L656.459 809.691L587 770L517.541 730.309L126.09 1415.35L195.549 1455.04ZM653.938 1125.52H733.938C733.938 1044.44 668.54 978.001 587.003 978L587.002 1058L587.001 1138C579.187 1138 573.938 1131.81 573.938 1125.52H653.938ZM587.002 1058V978C505.466 978 440.064 1044.44 440.064 1125.52H520.064H600.064C600.064 1131.81 594.814 1138 587.002 1138V1058ZM520.064 1125.52H440.064V1194.77H520.064H600.064V1125.52H520.064ZM530.064 1204.77V1284.77H643.938V1204.77V1124.77H530.064V1204.77ZM653.938 1194.77H733.938V1125.52H653.938H573.938V1194.77H653.938ZM675.938 1236.77V1156.77H498.064V1236.77V1316.77H675.938V1236.77ZM488.064 1226.77H568.064V1125.52H488.064H408.064V1226.77H488.064ZM488.064 1125.52H568.064C568.064 1114.29 576.993 1106 587.002 1106V1026V946C487.516 946 408.064 1027.04 408.064 1125.52H488.064ZM587.002 1026L587.001 1106C597.009 1106 605.938 1114.29 605.938 1125.52H685.938H765.938C765.938 1027.04 686.489 946.001 587.003 946L587.002 1026ZM685.938 1125.52H605.938V1226.77H685.938H765.938V1125.52H685.938ZM493 1156.92V1236.92H681V1156.92V1076.92H493V1156.92ZM713 1188.92H633V1342H713H793V1188.92H713ZM681 1374V1294H493V1374V1454H681V1374ZM461 1342H541V1188.92H461H381V1342H461ZM493 1374V1294C519.51 1294 541 1315.49 541 1342H461H381C381 1403.86 431.144 1454 493 1454V1374ZM713 1342H633C633 1315.49 654.49 1294 681 1294V1374V1454C742.856 1454 793 1403.86 793 1342H713ZM681 1156.92V1236.92C654.49 1236.92 633 1215.43 633 1188.92H713H793C793 1127.07 742.856 1076.92 681 1076.92V1156.92ZM493 1156.92V1076.92C431.144 1076.92 381 1127.07 381 1188.92H461H541C541 1215.43 519.51 1236.92 493 1236.92V1156.92ZM587 1220.77V1300.77C560.377 1300.77 538.899 1279.19 538.899 1252.69H618.899H698.899C698.899 1190.94 648.858 1140.77 587 1140.77V1220.77ZM618.899 1252.69H538.899C538.899 1239.71 544.152 1227.79 552.481 1219.21L609.881 1274.93L667.282 1330.66C686.772 1310.58 698.899 1282.97 698.899 1252.69H618.899ZM606.14 1283.22H526.14V1314.93H606.14H686.14V1283.22H606.14ZM606.12 1314.95L526.202 1311.34C527.812 1275.65 557.285 1252.5 587 1252.5V1332.5V1412.5C637.292 1412.5 683.547 1373.78 686.039 1318.56L606.12 1314.95ZM587 1332.5V1252.5C616.716 1252.5 646.188 1275.65 647.799 1311.34L567.88 1314.95L487.961 1318.56C490.453 1373.78 536.708 1412.5 587 1412.5V1332.5ZM567.861 1314.93H647.861V1283.22H567.861H487.861V1314.93H567.861ZM564.119 1274.93L621.519 1219.21C629.848 1227.79 635.102 1239.71 635.102 1252.69H555.102H475.102C475.102 1282.97 487.229 1310.58 506.719 1330.66L564.119 1274.93ZM555.102 1252.69H635.102C635.102 1279.19 613.623 1300.77 587 1300.77V1220.77V1140.77C525.143 1140.77 475.102 1190.94 475.102 1252.69H555.102ZM1387 770L1317.54 809.691L1708.99 1494.73L1778.45 1455.04L1847.91 1415.35L1456.46 730.309L1387 770ZM1769.77 1470V1390H987V1470V1550H1769.77V1470ZM987 1470L1056.46 1509.69L1456.46 809.691L1387 770L1317.54 730.309L917.54 1430.31L987 1470ZM1241.96 1179.7H1321.96V1136H1241.96H1161.96V1179.7H1241.96ZM1259.96 1118V1198H1332.63V1118V1038H1259.96V1118ZM1345.33 1123.24L1288.9 1179.95L1297.27 1188.28L1353.69 1131.57L1410.12 1074.86L1401.75 1066.53L1345.33 1123.24ZM1366.39 1136.81V1216.81H1509.26V1136.81V1056.81H1366.39V1136.81ZM1527.26 1154.81H1447.26V1179.7H1527.26H1607.26V1154.81H1527.26ZM1509.26 1197.7V1117.7H1259.96V1197.7V1277.7H1509.26V1197.7ZM1527.26 1179.7H1447.26C1447.26 1145.46 1475.02 1117.7 1509.26 1117.7V1197.7V1277.7C1563.38 1277.7 1607.26 1233.83 1607.26 1179.7H1527.26ZM1509.26 1136.81V1216.81C1475.02 1216.81 1447.26 1189.05 1447.26 1154.81H1527.26H1607.26C1607.26 1100.68 1563.38 1056.81 1509.26 1056.81V1136.81ZM1353.69 1131.57L1297.27 1188.27C1315.63 1206.55 1340.48 1216.81 1366.39 1216.81V1136.81V1056.81C1382.78 1056.81 1398.5 1063.3 1410.12 1074.86L1353.69 1131.57ZM1332.63 1118V1198C1316.24 1198 1300.52 1191.51 1288.9 1179.95L1345.33 1123.24L1401.75 1066.53C1383.39 1048.26 1358.54 1038 1332.63 1038V1118ZM1241.96 1136H1321.96C1321.96 1170.24 1294.2 1198 1259.96 1198V1118V1038C1205.84 1038 1161.96 1081.88 1161.96 1136H1241.96ZM1241.96 1179.7H1161.96C1161.96 1233.83 1205.84 1277.7 1259.96 1277.7V1197.7V1117.7C1294.2 1117.7 1321.96 1145.46 1321.96 1179.7H1241.96ZM1271.66 1150.24V1230.24H1498.46V1150.24V1070.24H1271.66V1150.24ZM1516.46 1168.24H1436.46V1185.97H1516.46H1596.46V1168.24H1516.46ZM1498.46 1203.97V1123.97H1271.66V1203.97V1283.97H1498.46V1203.97ZM1253.66 1185.97H1333.66V1168.24H1253.66H1173.66V1185.97H1253.66ZM1271.66 1203.97V1123.97C1305.9 1123.97 1333.66 1151.73 1333.66 1185.97H1253.66H1173.66C1173.66 1240.09 1217.54 1283.97 1271.66 1283.97V1203.97ZM1516.46 1185.97H1436.46C1436.46 1151.73 1464.22 1123.97 1498.46 1123.97V1203.97V1283.97C1552.58 1283.97 1596.46 1240.09 1596.46 1185.97H1516.46ZM1498.46 1150.24V1230.24C1464.22 1230.24 1436.46 1202.48 1436.46 1168.24H1516.46H1596.46C1596.46 1114.11 1552.58 1070.24 1498.46 1070.24V1150.24ZM1271.66 1150.24V1070.24C1217.54 1070.24 1173.66 1114.11 1173.66 1168.24H1253.66H1333.66C1333.66 1202.48 1305.9 1230.24 1271.66 1230.24V1150.24ZM1510.96 1358V1278H1259.16V1358V1438H1510.96V1358ZM1241.26 1341.84L1320.84 1333.67L1304.68 1176.24L1225.1 1184.41L1145.51 1192.57L1161.67 1350.01L1241.26 1341.84ZM1243 1164.57V1244.57H1527.12V1164.57V1084.57H1243V1164.57ZM1545.02 1184.41L1465.44 1176.24L1449.28 1333.67L1528.86 1341.84L1608.45 1350.01L1624.61 1192.57L1545.02 1184.41ZM1527.12 1164.57V1244.57C1490.37 1244.57 1461.69 1212.79 1465.44 1176.24L1545.02 1184.41L1624.61 1192.57C1630.54 1134.8 1585.2 1084.57 1527.12 1084.57V1164.57ZM1225.1 1184.41L1304.68 1176.24C1308.43 1212.79 1279.75 1244.57 1243 1244.57V1164.57V1084.57C1184.92 1084.57 1139.58 1134.8 1145.51 1192.57L1225.1 1184.41ZM1259.16 1358V1278C1290.95 1278 1317.59 1302.05 1320.84 1333.67L1241.26 1341.84L1161.67 1350.01C1166.8 1399.99 1208.91 1438 1259.16 1438V1358ZM1510.96 1358V1438C1561.21 1438 1603.31 1399.99 1608.45 1350.01L1528.86 1341.84L1449.28 1333.67C1452.53 1302.05 1479.17 1278 1510.96 1278V1358ZM567.871 1314.94V1234.94C612.048 1234.94 647.861 1270.75 647.861 1314.93H567.861H487.861C487.861 1359.12 523.683 1394.94 567.871 1394.94V1314.94ZM567.88 1314.95L647.799 1311.34C645.894 1269.13 611.181 1234.94 567.871 1234.94V1314.94V1394.94C524.57 1394.94 489.866 1360.76 487.961 1318.56L567.88 1314.95ZM204.232 1470V1390C257.979 1390 291.675 1448.06 265.009 1494.73L195.549 1455.04L126.09 1415.35C91.8047 1475.35 135.128 1550 204.232 1550V1470ZM606.13 1314.94V1234.94C562.828 1234.94 528.107 1269.12 526.202 1311.34L606.12 1314.95L686.039 1318.56C684.134 1360.77 649.422 1394.94 606.13 1394.94V1314.94ZM996.645 370.257L1028.98 297.085C1000.59 284.536 966.776 287.593 940.874 307.685C916.968 326.228 907 353.388 907 377.421H987H1067C1067 395.868 1059.3 418.316 1038.94 434.11C1016.58 451.452 987.59 453.72 964.306 443.429L996.645 370.257ZM609.881 1274.93L552.481 1219.21C540.674 1231.37 526.14 1253.19 526.14 1283.22H606.14H686.14C686.14 1306.97 674.71 1323.01 667.282 1330.66L609.881 1274.93ZM498.064 1236.77V1156.77C536.724 1156.77 568.064 1188.11 568.064 1226.77H488.064H408.064C408.064 1276.48 448.359 1316.77 498.064 1316.77V1236.77ZM1778.45 1455.04L1708.99 1494.73C1682.32 1448.06 1716.02 1390 1769.77 1390V1470V1550C1838.87 1550 1882.2 1475.35 1847.91 1415.35L1778.45 1455.04ZM675.938 1236.77V1316.77C725.643 1316.77 765.938 1276.48 765.938 1226.77H685.938H605.938C605.938 1188.11 637.278 1156.77 675.938 1156.77V1236.77ZM643.938 1204.77V1284.77C693.643 1284.77 733.938 1244.48 733.938 1194.77H653.938H573.938C573.938 1156.11 605.278 1124.77 643.938 1124.77V1204.77ZM606.14 1314.93H526.14C526.14 1270.78 561.923 1234.94 606.13 1234.94V1314.94V1394.94C650.347 1394.94 686.14 1359.09 686.14 1314.93H606.14ZM987.053 638.378L987.053 558.378C1034.97 558.378 1067 598.034 1067 638.323H987H907C907 678.67 939.073 718.377 987.052 718.378L987.053 638.378ZM567.861 1283.22H647.861C647.861 1253.19 633.327 1231.37 621.519 1219.21L564.119 1274.93L506.719 1330.66C499.291 1323.01 487.861 1306.97 487.861 1283.22H567.861ZM520.064 1194.77H440.064C440.064 1244.48 480.359 1284.77 530.064 1284.77V1204.77V1124.77C568.724 1124.77 600.064 1156.11 600.064 1194.77H520.064ZM995.682 85.1943L1065.14 45.5031C1030.59 -14.9599 943.409 -14.9605 908.858 45.5031L978.318 85.1942L1047.78 124.885C1020.9 171.913 953.095 171.912 926.223 124.885L995.682 85.1943Z" fill="#0087CA" mask="url(#path-1-outside-1_1151_5511)"/>
<path d="M210.288 1510C216.527 1510 222.499 1511.14 228.006 1513.23C233.513 1511.14 239.485 1510 245.725 1510H364.695C374.476 1510 384.162 1512.6 392.755 1517.96C400.556 1512.92 409.848 1510 419.822 1510H462.068C481.534 1510 498.4 1521.12 506.66 1537.36C514.99 1520.96 531.999 1510 551.249 1510H604.877C623.682 1510 640.348 1520.46 648.874 1536.23C657.33 1520.61 673.863 1510 692.874 1510H811.374C823.1 1510 834.693 1513.73 844.425 1521.48C853.541 1528.73 858.955 1537.83 862.235 1545.66C868.458 1560.51 870 1578.05 870 1594.45V1855.55C870 1871.95 868.458 1889.49 862.235 1904.34C858.955 1912.17 853.541 1921.27 844.425 1928.52C834.693 1936.27 823.1 1940 811.374 1940H692.874C686.496 1940 680.398 1938.8 674.789 1936.63C669.196 1938.8 663.094 1940 656.675 1940H618.536C601.594 1940 586.443 1931.52 577.371 1918.39C568.297 1931.53 553.144 1940 536.206 1940H499.452C492.804 1940 486.497 1938.71 480.742 1936.39C474.972 1938.72 468.67 1940 462.068 1940H419.822C412.063 1940 404.716 1938.23 398.163 1935.08C391.651 1938.22 384.309 1940 376.457 1940H334.601C325.783 1940 317.405 1937.69 310.112 1933.59C302.872 1937.67 294.515 1940 285.612 1940H245.725C230.518 1940 216.899 1933.21 207.729 1922.5C198.558 1933.21 184.94 1940 169.734 1940H129.847C102.232 1940 79.8467 1917.61 79.8467 1890V1622.17C57.1008 1617.48 40 1597.33 40 1573.2V1560C40 1532.39 62.3857 1510 90 1510H210.288Z" fill="#0087CA" stroke="#0087CA" stroke-width="80"/>
<mask id="path-4-outside-2_1151_5511" maskUnits="userSpaceOnUse" x="813" y="1470" width="1160" height="510" fill="black">
<rect fill="white" x="813" y="1470" width="1160" height="510"/>
<path d="M1001.23 1849.36V1757.64C1001.23 1750.51 1000.69 1745.82 999.611 1743.57C998.712 1741.32 996.462 1740.19 992.864 1740.19H914.322C900.107 1740.19 893 1725.38 893 1695.74V1594.45C893 1564.82 900.107 1550 914.322 1550H1002.58C1016.8 1550 1023.9 1564.82 1023.9 1594.45V1640.16C1023.9 1645.68 1019.43 1650.16 1013.9 1650.16H1010.15C1004.63 1650.16 1000.15 1645.68 1000.15 1640.16V1600.64C1000.15 1593.88 999.713 1589.41 998.837 1587.22C998.661 1586.78 998.459 1586.35 998.222 1585.94C997.17 1584.11 995.024 1583.2 991.784 1583.2H925.118C921.7 1583.2 919.45 1584.32 918.371 1586.58C917.291 1588.45 916.751 1593.14 916.751 1600.64V1689.55C916.751 1697.05 917.291 1701.93 918.371 1704.18C919.45 1706.06 921.7 1706.99 925.118 1706.99H1003.39C1017.6 1706.99 1024.71 1721.81 1024.71 1751.45V1855.55C1024.71 1885.18 1017.6 1900 1003.39 1900H914.862C900.647 1900 893.54 1885.18 893.54 1855.55V1809.84C893.54 1804.32 898.017 1799.84 903.54 1799.84H907.291C912.814 1799.84 917.291 1804.32 917.291 1809.84V1849.36C917.291 1856.86 917.831 1861.74 918.911 1863.99C919.99 1865.86 922.239 1866.8 925.658 1866.8H992.864C996.462 1866.8 998.712 1865.86 999.611 1863.99C1000.69 1861.74 1001.23 1856.86 1001.23 1849.36Z"/>
<path d="M1097.43 1856.8C1097.43 1862.32 1101.91 1866.8 1107.43 1866.8H1181.36C1186.88 1866.8 1191.36 1871.28 1191.36 1876.8V1890C1191.36 1895.52 1186.88 1900 1181.36 1900H1083.41C1077.89 1900 1073.41 1895.52 1073.41 1890V1560C1073.41 1554.48 1077.89 1550 1083.41 1550H1177.58C1183.1 1550 1187.58 1554.48 1187.58 1560V1573.2C1187.58 1578.72 1183.1 1583.2 1177.58 1583.2H1107.43C1101.91 1583.2 1097.43 1587.68 1097.43 1593.2V1694.18C1097.43 1699.7 1101.91 1704.18 1107.43 1704.18H1166.52C1172.04 1704.18 1176.52 1708.66 1176.52 1714.18V1727.38C1176.52 1732.9 1172.04 1737.38 1166.52 1737.38H1107.43C1101.91 1737.38 1097.43 1741.86 1097.43 1747.38V1856.8Z"/>
<path d="M1362.45 1657.6C1362.45 1663.13 1357.98 1667.6 1352.45 1667.6H1348.7C1343.18 1667.6 1338.7 1663.13 1338.7 1657.6V1600.64C1338.7 1593.14 1338.16 1588.45 1337.08 1586.58C1336 1584.32 1333.76 1583.2 1330.34 1583.2H1261.24C1257.82 1583.2 1255.57 1584.32 1254.49 1586.58C1253.41 1588.45 1252.87 1593.14 1252.87 1600.64V1849.36C1252.87 1856.86 1253.41 1861.74 1254.49 1863.99C1255.57 1865.86 1257.82 1866.8 1261.24 1866.8H1330.34C1333.76 1866.8 1336 1865.86 1337.08 1863.99C1338.16 1861.74 1338.7 1856.86 1338.7 1849.36V1792.4C1338.7 1786.87 1343.18 1782.4 1348.7 1782.4H1352.45C1357.98 1782.4 1362.45 1786.87 1362.45 1792.4V1855.55C1362.45 1885.18 1355.35 1900 1341.13 1900H1250.45C1236.23 1900 1229.12 1885.18 1229.12 1855.55V1594.45C1229.12 1564.82 1236.23 1550 1250.45 1550H1341.13C1355.35 1550 1362.45 1564.82 1362.45 1594.45V1657.6Z"/>
<path d="M1416.3 1550C1421.82 1550 1426.3 1554.48 1426.3 1560V1849.36C1426.3 1856.18 1426.67 1860.84 1427.42 1863.32C1427.56 1863.77 1427.75 1864.21 1428.05 1864.57C1429.26 1866.06 1431.47 1866.8 1434.67 1866.8H1507C1510.6 1866.8 1512.85 1865.86 1513.75 1863.99C1514.83 1861.74 1515.37 1856.86 1515.37 1849.36V1560C1515.37 1554.48 1519.85 1550 1525.37 1550H1528.58C1534.1 1550 1538.58 1554.48 1538.58 1560V1855.55C1538.58 1885.18 1531.47 1900 1517.26 1900H1424.14C1409.93 1900 1402.82 1885.18 1402.82 1855.55V1560C1402.82 1554.48 1407.3 1550 1412.82 1550H1416.3Z"/>
<path d="M1623.24 1583.2C1617.72 1583.2 1613.24 1587.68 1613.24 1593.2V1731.32C1613.24 1736.84 1617.72 1741.32 1623.24 1741.32H1695.02C1698.62 1741.32 1700.87 1740.19 1701.77 1737.94C1702.85 1735.69 1703.39 1731 1703.39 1723.87V1600.64C1703.39 1593.88 1702.95 1589.41 1702.07 1587.22C1701.9 1586.78 1701.7 1586.35 1701.46 1585.94C1700.41 1584.11 1698.26 1583.2 1695.02 1583.2H1623.24ZM1623.24 1774.52C1617.72 1774.52 1613.24 1778.99 1613.24 1784.52V1890C1613.24 1895.52 1608.76 1900 1603.24 1900H1599.76C1594.24 1900 1589.76 1895.52 1589.76 1890V1560C1589.76 1554.48 1594.24 1550 1599.76 1550H1705.28C1719.49 1550 1726.6 1564.82 1726.6 1594.45V1730.06C1726.6 1759.7 1719.49 1774.52 1705.28 1774.52H1702.81C1696.1 1774.52 1691.3 1780.98 1693.23 1787.4L1723.26 1887.12C1725.19 1893.53 1720.39 1900 1713.68 1900H1710.3C1705.88 1900 1701.98 1897.1 1700.71 1892.86L1667.46 1781.65C1666.2 1777.42 1662.3 1774.52 1657.88 1774.52H1623.24Z"/>
<path d="M1799.07 1856.8C1799.07 1862.32 1803.55 1866.8 1809.07 1866.8H1883C1888.52 1866.8 1893 1871.28 1893 1876.8V1890C1893 1895.52 1888.52 1900 1883 1900H1785.05C1779.53 1900 1775.05 1895.52 1775.05 1890V1560C1775.05 1554.48 1779.53 1550 1785.05 1550H1879.22C1884.74 1550 1889.22 1554.48 1889.22 1560V1573.2C1889.22 1578.72 1884.74 1583.2 1879.22 1583.2H1809.07C1803.55 1583.2 1799.07 1587.68 1799.07 1593.2V1694.18C1799.07 1699.7 1803.55 1704.18 1809.07 1704.18H1868.16C1873.68 1704.18 1878.16 1708.66 1878.16 1714.18V1727.38C1878.16 1732.9 1873.68 1737.38 1868.16 1737.38H1809.07C1803.55 1737.38 1799.07 1741.86 1799.07 1747.38V1856.8Z"/>
</mask>
<path d="M1001.23 1849.36V1757.64C1001.23 1750.51 1000.69 1745.82 999.611 1743.57C998.712 1741.32 996.462 1740.19 992.864 1740.19H914.322C900.107 1740.19 893 1725.38 893 1695.74V1594.45C893 1564.82 900.107 1550 914.322 1550H1002.58C1016.8 1550 1023.9 1564.82 1023.9 1594.45V1640.16C1023.9 1645.68 1019.43 1650.16 1013.9 1650.16H1010.15C1004.63 1650.16 1000.15 1645.68 1000.15 1640.16V1600.64C1000.15 1593.88 999.713 1589.41 998.837 1587.22C998.661 1586.78 998.459 1586.35 998.222 1585.94C997.17 1584.11 995.024 1583.2 991.784 1583.2H925.118C921.7 1583.2 919.45 1584.32 918.371 1586.58C917.291 1588.45 916.751 1593.14 916.751 1600.64V1689.55C916.751 1697.05 917.291 1701.93 918.371 1704.18C919.45 1706.06 921.7 1706.99 925.118 1706.99H1003.39C1017.6 1706.99 1024.71 1721.81 1024.71 1751.45V1855.55C1024.71 1885.18 1017.6 1900 1003.39 1900H914.862C900.647 1900 893.54 1885.18 893.54 1855.55V1809.84C893.54 1804.32 898.017 1799.84 903.54 1799.84H907.291C912.814 1799.84 917.291 1804.32 917.291 1809.84V1849.36C917.291 1856.86 917.831 1861.74 918.911 1863.99C919.99 1865.86 922.239 1866.8 925.658 1866.8H992.864C996.462 1866.8 998.712 1865.86 999.611 1863.99C1000.69 1861.74 1001.23 1856.86 1001.23 1849.36Z" fill="#0087CA"/>
<path d="M1097.43 1856.8C1097.43 1862.32 1101.91 1866.8 1107.43 1866.8H1181.36C1186.88 1866.8 1191.36 1871.28 1191.36 1876.8V1890C1191.36 1895.52 1186.88 1900 1181.36 1900H1083.41C1077.89 1900 1073.41 1895.52 1073.41 1890V1560C1073.41 1554.48 1077.89 1550 1083.41 1550H1177.58C1183.1 1550 1187.58 1554.48 1187.58 1560V1573.2C1187.58 1578.72 1183.1 1583.2 1177.58 1583.2H1107.43C1101.91 1583.2 1097.43 1587.68 1097.43 1593.2V1694.18C1097.43 1699.7 1101.91 1704.18 1107.43 1704.18H1166.52C1172.04 1704.18 1176.52 1708.66 1176.52 1714.18V1727.38C1176.52 1732.9 1172.04 1737.38 1166.52 1737.38H1107.43C1101.91 1737.38 1097.43 1741.86 1097.43 1747.38V1856.8Z" fill="#0087CA"/>
<path d="M1362.45 1657.6C1362.45 1663.13 1357.98 1667.6 1352.45 1667.6H1348.7C1343.18 1667.6 1338.7 1663.13 1338.7 1657.6V1600.64C1338.7 1593.14 1338.16 1588.45 1337.08 1586.58C1336 1584.32 1333.76 1583.2 1330.34 1583.2H1261.24C1257.82 1583.2 1255.57 1584.32 1254.49 1586.58C1253.41 1588.45 1252.87 1593.14 1252.87 1600.64V1849.36C1252.87 1856.86 1253.41 1861.74 1254.49 1863.99C1255.57 1865.86 1257.82 1866.8 1261.24 1866.8H1330.34C1333.76 1866.8 1336 1865.86 1337.08 1863.99C1338.16 1861.74 1338.7 1856.86 1338.7 1849.36V1792.4C1338.7 1786.87 1343.18 1782.4 1348.7 1782.4H1352.45C1357.98 1782.4 1362.45 1786.87 1362.45 1792.4V1855.55C1362.45 1885.18 1355.35 1900 1341.13 1900H1250.45C1236.23 1900 1229.12 1885.18 1229.12 1855.55V1594.45C1229.12 1564.82 1236.23 1550 1250.45 1550H1341.13C1355.35 1550 1362.45 1564.82 1362.45 1594.45V1657.6Z" fill="#0087CA"/>
<path d="M1416.3 1550C1421.82 1550 1426.3 1554.48 1426.3 1560V1849.36C1426.3 1856.18 1426.67 1860.84 1427.42 1863.32C1427.56 1863.77 1427.75 1864.21 1428.05 1864.57C1429.26 1866.06 1431.47 1866.8 1434.67 1866.8H1507C1510.6 1866.8 1512.85 1865.86 1513.75 1863.99C1514.83 1861.74 1515.37 1856.86 1515.37 1849.36V1560C1515.37 1554.48 1519.85 1550 1525.37 1550H1528.58C1534.1 1550 1538.58 1554.48 1538.58 1560V1855.55C1538.58 1885.18 1531.47 1900 1517.26 1900H1424.14C1409.93 1900 1402.82 1885.18 1402.82 1855.55V1560C1402.82 1554.48 1407.3 1550 1412.82 1550H1416.3Z" fill="#0087CA"/>
<path d="M1623.24 1583.2C1617.72 1583.2 1613.24 1587.68 1613.24 1593.2V1731.32C1613.24 1736.84 1617.72 1741.32 1623.24 1741.32H1695.02C1698.62 1741.32 1700.87 1740.19 1701.77 1737.94C1702.85 1735.69 1703.39 1731 1703.39 1723.87V1600.64C1703.39 1593.88 1702.95 1589.41 1702.07 1587.22C1701.9 1586.78 1701.7 1586.35 1701.46 1585.94C1700.41 1584.11 1698.26 1583.2 1695.02 1583.2H1623.24ZM1623.24 1774.52C1617.72 1774.52 1613.24 1778.99 1613.24 1784.52V1890C1613.24 1895.52 1608.76 1900 1603.24 1900H1599.76C1594.24 1900 1589.76 1895.52 1589.76 1890V1560C1589.76 1554.48 1594.24 1550 1599.76 1550H1705.28C1719.49 1550 1726.6 1564.82 1726.6 1594.45V1730.06C1726.6 1759.7 1719.49 1774.52 1705.28 1774.52H1702.81C1696.1 1774.52 1691.3 1780.98 1693.23 1787.4L1723.26 1887.12C1725.19 1893.53 1720.39 1900 1713.68 1900H1710.3C1705.88 1900 1701.98 1897.1 1700.71 1892.86L1667.46 1781.65C1666.2 1777.42 1662.3 1774.52 1657.88 1774.52H1623.24Z" fill="#0087CA"/>
<path d="M1799.07 1856.8C1799.07 1862.32 1803.55 1866.8 1809.07 1866.8H1883C1888.52 1866.8 1893 1871.28 1893 1876.8V1890C1893 1895.52 1888.52 1900 1883 1900H1785.05C1779.53 1900 1775.05 1895.52 1775.05 1890V1560C1775.05 1554.48 1779.53 1550 1785.05 1550H1879.22C1884.74 1550 1889.22 1554.48 1889.22 1560V1573.2C1889.22 1578.72 1884.74 1583.2 1879.22 1583.2H1809.07C1803.55 1583.2 1799.07 1587.68 1799.07 1593.2V1694.18C1799.07 1699.7 1803.55 1704.18 1809.07 1704.18H1868.16C1873.68 1704.18 1878.16 1708.66 1878.16 1714.18V1727.38C1878.16 1732.9 1873.68 1737.38 1868.16 1737.38H1809.07C1803.55 1737.38 1799.07 1741.86 1799.07 1747.38V1856.8Z" fill="#0087CA"/>
<path d="M1001.23 1849.36V1757.64C1001.23 1750.51 1000.69 1745.82 999.611 1743.57C998.712 1741.32 996.462 1740.19 992.864 1740.19H914.322C900.107 1740.19 893 1725.38 893 1695.74V1594.45C893 1564.82 900.107 1550 914.322 1550H1002.58C1016.8 1550 1023.9 1564.82 1023.9 1594.45V1640.16C1023.9 1645.68 1019.43 1650.16 1013.9 1650.16H1010.15C1004.63 1650.16 1000.15 1645.68 1000.15 1640.16V1600.64C1000.15 1593.88 999.713 1589.41 998.837 1587.22C998.661 1586.78 998.459 1586.35 998.222 1585.94C997.17 1584.11 995.024 1583.2 991.784 1583.2H925.118C921.7 1583.2 919.45 1584.32 918.371 1586.58C917.291 1588.45 916.751 1593.14 916.751 1600.64V1689.55C916.751 1697.05 917.291 1701.93 918.371 1704.18C919.45 1706.06 921.7 1706.99 925.118 1706.99H1003.39C1017.6 1706.99 1024.71 1721.81 1024.71 1751.45V1855.55C1024.71 1885.18 1017.6 1900 1003.39 1900H914.862C900.647 1900 893.54 1885.18 893.54 1855.55V1809.84C893.54 1804.32 898.017 1799.84 903.54 1799.84H907.291C912.814 1799.84 917.291 1804.32 917.291 1809.84V1849.36C917.291 1856.86 917.831 1861.74 918.911 1863.99C919.99 1865.86 922.239 1866.8 925.658 1866.8H992.864C996.462 1866.8 998.712 1865.86 999.611 1863.99C1000.69 1861.74 1001.23 1856.86 1001.23 1849.36Z" stroke="#0087CA" stroke-width="160" mask="url(#path-4-outside-2_1151_5511)"/>
<path d="M1097.43 1856.8C1097.43 1862.32 1101.91 1866.8 1107.43 1866.8H1181.36C1186.88 1866.8 1191.36 1871.28 1191.36 1876.8V1890C1191.36 1895.52 1186.88 1900 1181.36 1900H1083.41C1077.89 1900 1073.41 1895.52 1073.41 1890V1560C1073.41 1554.48 1077.89 1550 1083.41 1550H1177.58C1183.1 1550 1187.58 1554.48 1187.58 1560V1573.2C1187.58 1578.72 1183.1 1583.2 1177.58 1583.2H1107.43C1101.91 1583.2 1097.43 1587.68 1097.43 1593.2V1694.18C1097.43 1699.7 1101.91 1704.18 1107.43 1704.18H1166.52C1172.04 1704.18 1176.52 1708.66 1176.52 1714.18V1727.38C1176.52 1732.9 1172.04 1737.38 1166.52 1737.38H1107.43C1101.91 1737.38 1097.43 1741.86 1097.43 1747.38V1856.8Z" stroke="#0087CA" stroke-width="160" mask="url(#path-4-outside-2_1151_5511)"/>
<path d="M1362.45 1657.6C1362.45 1663.13 1357.98 1667.6 1352.45 1667.6H1348.7C1343.18 1667.6 1338.7 1663.13 1338.7 1657.6V1600.64C1338.7 1593.14 1338.16 1588.45 1337.08 1586.58C1336 1584.32 1333.76 1583.2 1330.34 1583.2H1261.24C1257.82 1583.2 1255.57 1584.32 1254.49 1586.58C1253.41 1588.45 1252.87 1593.14 1252.87 1600.64V1849.36C1252.87 1856.86 1253.41 1861.74 1254.49 1863.99C1255.57 1865.86 1257.82 1866.8 1261.24 1866.8H1330.34C1333.76 1866.8 1336 1865.86 1337.08 1863.99C1338.16 1861.74 1338.7 1856.86 1338.7 1849.36V1792.4C1338.7 1786.87 1343.18 1782.4 1348.7 1782.4H1352.45C1357.98 1782.4 1362.45 1786.87 1362.45 1792.4V1855.55C1362.45 1885.18 1355.35 1900 1341.13 1900H1250.45C1236.23 1900 1229.12 1885.18 1229.12 1855.55V1594.45C1229.12 1564.82 1236.23 1550 1250.45 1550H1341.13C1355.35 1550 1362.45 1564.82 1362.45 1594.45V1657.6Z" stroke="#0087CA" stroke-width="160" mask="url(#path-4-outside-2_1151_5511)"/>
<path d="M1416.3 1550C1421.82 1550 1426.3 1554.48 1426.3 1560V1849.36C1426.3 1856.18 1426.67 1860.84 1427.42 1863.32C1427.56 1863.77 1427.75 1864.21 1428.05 1864.57C1429.26 1866.06 1431.47 1866.8 1434.67 1866.8H1507C1510.6 1866.8 1512.85 1865.86 1513.75 1863.99C1514.83 1861.74 1515.37 1856.86 1515.37 1849.36V1560C1515.37 1554.48 1519.85 1550 1525.37 1550H1528.58C1534.1 1550 1538.58 1554.48 1538.58 1560V1855.55C1538.58 1885.18 1531.47 1900 1517.26 1900H1424.14C1409.93 1900 1402.82 1885.18 1402.82 1855.55V1560C1402.82 1554.48 1407.3 1550 1412.82 1550H1416.3Z" stroke="#0087CA" stroke-width="160" mask="url(#path-4-outside-2_1151_5511)"/>
<path d="M1623.24 1583.2C1617.72 1583.2 1613.24 1587.68 1613.24 1593.2V1731.32C1613.24 1736.84 1617.72 1741.32 1623.24 1741.32H1695.02C1698.62 1741.32 1700.87 1740.19 1701.77 1737.94C1702.85 1735.69 1703.39 1731 1703.39 1723.87V1600.64C1703.39 1593.88 1702.95 1589.41 1702.07 1587.22C1701.9 1586.78 1701.7 1586.35 1701.46 1585.94C1700.41 1584.11 1698.26 1583.2 1695.02 1583.2H1623.24ZM1623.24 1774.52C1617.72 1774.52 1613.24 1778.99 1613.24 1784.52V1890C1613.24 1895.52 1608.76 1900 1603.24 1900H1599.76C1594.24 1900 1589.76 1895.52 1589.76 1890V1560C1589.76 1554.48 1594.24 1550 1599.76 1550H1705.28C1719.49 1550 1726.6 1564.82 1726.6 1594.45V1730.06C1726.6 1759.7 1719.49 1774.52 1705.28 1774.52H1702.81C1696.1 1774.52 1691.3 1780.98 1693.23 1787.4L1723.26 1887.12C1725.19 1893.53 1720.39 1900 1713.68 1900H1710.3C1705.88 1900 1701.98 1897.1 1700.71 1892.86L1667.46 1781.65C1666.2 1777.42 1662.3 1774.52 1657.88 1774.52H1623.24Z" stroke="#0087CA" stroke-width="160" mask="url(#path-4-outside-2_1151_5511)"/>
<path d="M1799.07 1856.8C1799.07 1862.32 1803.55 1866.8 1809.07 1866.8H1883C1888.52 1866.8 1893 1871.28 1893 1876.8V1890C1893 1895.52 1888.52 1900 1883 1900H1785.05C1779.53 1900 1775.05 1895.52 1775.05 1890V1560C1775.05 1554.48 1779.53 1550 1785.05 1550H1879.22C1884.74 1550 1889.22 1554.48 1889.22 1560V1573.2C1889.22 1578.72 1884.74 1583.2 1879.22 1583.2H1809.07C1803.55 1583.2 1799.07 1587.68 1799.07 1593.2V1694.18C1799.07 1699.7 1803.55 1704.18 1809.07 1704.18H1868.16C1873.68 1704.18 1878.16 1708.66 1878.16 1714.18V1727.38C1878.16 1732.9 1873.68 1737.38 1868.16 1737.38H1809.07C1803.55 1737.38 1799.07 1741.86 1799.07 1747.38V1856.8Z" stroke="#0087CA" stroke-width="160" mask="url(#path-4-outside-2_1151_5511)"/>
<path d="M987 70L1387 770H587L987 70Z" fill="#49C2FF"/>
<path d="M849.294 404.265C846.386 514.388 863.513 578.27 971.358 646.924C978.768 651.641 982.473 654 986.94 654C991.408 654 995.113 651.641 1002.52 646.924C1110.38 578.27 1127.6 514.387 1124.71 404.264C1124.35 390.476 1124.17 383.582 1119.77 379.263C1115.36 374.943 1108.12 374.871 1093.63 374.726C1053.09 374.321 1028.01 369.81 1003.22 358C994.824 354.001 990.626 352.001 987.162 352C983.699 351.999 979.496 353.997 971.091 357.993C946.236 369.81 920.991 374.323 880.375 374.727C865.888 374.871 858.644 374.943 854.242 379.262C849.84 383.58 849.658 390.475 849.294 404.265Z" fill="#E5E5E5"/>
<path d="M864.52 417.133C862.34 513.772 877.997 570.616 971.24 631.325C978.674 636.165 982.391 638.585 986.944 638.585C991.496 638.585 995.213 636.165 1002.65 631.325C1095.9 570.616 1111.64 513.772 1109.48 417.133C1109.17 403.405 1109.02 396.541 1104.65 392.208C1100.28 387.874 1092.99 387.75 1078.41 387.501C1045.4 386.938 1024.11 383.041 1003.41 373.438C994.819 369.453 990.523 367.46 987.142 367.459C983.761 367.457 979.459 369.448 970.857 373.43C950.095 383.041 928.673 386.94 895.589 387.502C881.011 387.75 873.721 387.873 869.353 392.206C864.984 396.538 864.83 403.403 864.52 417.133Z" fill="white"/>
<path d="M987 638.376C987.018 638.376 987.035 638.378 987.053 638.378C991.605 638.378 995.322 635.959 1002.76 631.119C1096 570.41 1111.66 513.565 1109.48 416.927C1109.17 403.198 1109.01 396.333 1104.64 392C1100.28 387.668 1092.99 387.542 1078.41 387.295C1045.33 386.732 1023.9 382.835 1003.14 373.225C994.661 369.299 990.36 367.312 987 367.257V638.376Z" fill="#E0E0E0"/>
<path d="M587 770L987 1470H187L587 770Z" fill="#0099E4"/>
<path d="M653.938 1125.52C653.938 1088.13 623.864 1058 587.002 1058C550.14 1058 520.064 1088.12 520.064 1125.52V1204.77H653.938V1125.52ZM685.938 1236.77H488.064V1125.52C488.064 1070.66 532.255 1026 587.002 1026C641.749 1026 685.938 1070.67 685.938 1125.52V1236.77Z" fill="#E9E9E9"/>
<path d="M461 1188.92C461 1171.25 475.327 1156.92 493 1156.92H681C698.673 1156.92 713 1171.25 713 1188.92V1342C713 1359.67 698.673 1374 681 1374H493C475.327 1374 461 1359.67 461 1342V1188.92Z" fill="#FFC637"/>
<path d="M587 1220.77C604.617 1220.77 618.899 1235.06 618.899 1252.69C618.899 1263.14 613.887 1272.41 606.14 1278.23V1314.94H606.121C605.685 1324.71 597.292 1332.5 587 1332.5C576.709 1332.5 568.315 1324.71 567.88 1314.94H567.861V1278.23C560.114 1272.41 555.102 1263.14 555.102 1252.69C555.102 1235.06 569.383 1220.77 587 1220.77Z" fill="#424242"/>
<path d="M1387 770L1787 1470H987L1387 770Z" fill="#8CD9FF"/>
<path d="M1241.96 1136V1179.7C1241.96 1189.64 1250.02 1197.7 1259.96 1197.7H1509.26C1519.2 1197.7 1527.26 1189.64 1527.26 1179.7V1154.81C1527.26 1144.86 1519.2 1136.81 1509.26 1136.81H1366.39C1361.63 1136.81 1357.07 1134.92 1353.69 1131.57L1345.33 1123.24C1341.95 1119.88 1337.39 1118 1332.63 1118H1259.96C1250.02 1118 1241.96 1126.06 1241.96 1136Z" fill="#FE9A03"/>
<path d="M1253.66 1168.24C1253.66 1158.3 1261.72 1150.24 1271.66 1150.24H1498.46C1508.4 1150.24 1516.46 1158.3 1516.46 1168.24V1185.97C1516.46 1195.91 1508.4 1203.97 1498.46 1203.97H1271.66C1261.72 1203.97 1253.66 1195.91 1253.66 1185.97V1168.24Z" fill="white"/>
<path d="M1528.86 1341.84C1527.92 1351.02 1520.19 1358 1510.96 1358H1259.16C1249.93 1358 1242.2 1351.02 1241.26 1341.84L1225.1 1184.41C1224.01 1173.79 1232.33 1164.57 1243 1164.57H1527.12C1537.79 1164.57 1546.11 1173.79 1545.02 1184.41L1528.86 1341.84Z" fill="#FFB600"/>
<path d="M220.288 1550V1583.2H179.734V1900H119.847V1583.2H80V1550H220.288Z" fill="#04ADFF"/>
<path d="M316.125 1583.2H295.612V1741.32H316.125C319.111 1741.32 321.076 1740.19 322.019 1737.94C322.962 1735.69 323.434 1731 323.434 1723.87V1600.64C323.434 1593.14 322.962 1588.45 322.019 1586.58C321.076 1584.32 319.111 1583.2 316.125 1583.2ZM295.612 1774.52V1900H235.724V1550H364.695C377.113 1550 383.322 1564.82 383.322 1594.45V1730.06C383.322 1759.7 377.113 1774.52 364.695 1774.52H356.207L389.452 1900H326.735L296.319 1774.52H295.612Z" fill="#04ADFF"/>
<path d="M409.823 1550H472.068V1900H409.823V1550Z" fill="#04ADFF"/>
<path d="M557.551 1797.59H597.397L577.828 1631.59L557.551 1797.59ZM609.658 1900L601.406 1830.79H553.542L545.054 1900H487.76L542.697 1550H613.43L668.367 1900H609.658Z" fill="#04ADFF"/>
<path d="M770.112 1849.36V1600.64C770.112 1593.14 769.641 1588.45 768.698 1586.58C767.755 1584.32 765.79 1583.2 762.803 1583.2H742.762V1866.8H762.803C765.79 1866.8 767.755 1865.86 768.698 1863.99C769.641 1861.74 770.112 1856.86 770.112 1849.36ZM682.874 1550H811.374C823.791 1550 830 1564.82 830 1594.45V1855.55C830 1885.18 823.791 1900 811.374 1900H682.874V1550Z" fill="#04ADFF"/>
<path d="M1001.23 1849.36V1757.64C1001.23 1750.51 1000.69 1745.82 999.611 1743.57C998.712 1741.32 996.462 1740.19 992.864 1740.19H914.322C900.107 1740.19 893 1725.38 893 1695.74V1594.45C893 1564.82 900.107 1550 914.322 1550H1002.58C1016.8 1550 1023.9 1564.82 1023.9 1594.45V1650.16H1000.15V1600.64C1000.15 1593.14 999.611 1588.45 998.532 1586.58C997.632 1584.32 995.383 1583.2 991.784 1583.2H925.118C921.7 1583.2 919.45 1584.32 918.371 1586.58C917.291 1588.45 916.751 1593.14 916.751 1600.64V1689.55C916.751 1697.05 917.291 1701.93 918.371 1704.18C919.45 1706.06 921.7 1706.99 925.118 1706.99H1003.39C1017.6 1706.99 1024.71 1721.81 1024.71 1751.45V1855.55C1024.71 1885.18 1017.6 1900 1003.39 1900H914.862C900.647 1900 893.54 1885.18 893.54 1855.55V1799.84H917.291V1849.36C917.291 1856.86 917.831 1861.74 918.911 1863.99C919.99 1865.86 922.239 1866.8 925.658 1866.8H992.864C996.462 1866.8 998.712 1865.86 999.611 1863.99C1000.69 1861.74 1001.23 1856.86 1001.23 1849.36Z" fill="white"/>
<path d="M1097.43 1866.8H1191.36V1900H1073.41V1550H1187.58V1583.2H1097.43V1704.18H1176.52V1737.38H1097.43V1866.8Z" fill="white"/>
<path d="M1362.45 1667.6H1338.7V1600.64C1338.7 1593.14 1338.16 1588.45 1337.08 1586.58C1336 1584.32 1333.76 1583.2 1330.34 1583.2H1261.24C1257.82 1583.2 1255.57 1584.32 1254.49 1586.58C1253.41 1588.45 1252.87 1593.14 1252.87 1600.64V1849.36C1252.87 1856.86 1253.41 1861.74 1254.49 1863.99C1255.57 1865.86 1257.82 1866.8 1261.24 1866.8H1330.34C1333.76 1866.8 1336 1865.86 1337.08 1863.99C1338.16 1861.74 1338.7 1856.86 1338.7 1849.36V1782.4H1362.45V1855.55C1362.45 1885.18 1355.35 1900 1341.13 1900H1250.45C1236.23 1900 1229.12 1885.18 1229.12 1855.55V1594.45C1229.12 1564.82 1236.23 1550 1250.45 1550H1341.13C1355.35 1550 1362.45 1564.82 1362.45 1594.45V1667.6Z" fill="white"/>
<path d="M1426.3 1550V1849.36C1426.3 1856.86 1426.75 1861.74 1427.65 1863.99C1428.73 1865.86 1431.07 1866.8 1434.67 1866.8H1507C1510.6 1866.8 1512.85 1865.86 1513.75 1863.99C1514.83 1861.74 1515.37 1856.86 1515.37 1849.36V1550H1538.58V1855.55C1538.58 1885.18 1531.47 1900 1517.26 1900H1424.14C1409.93 1900 1402.82 1885.18 1402.82 1855.55V1550H1426.3Z" fill="white"/>
<path d="M1613.24 1583.2V1741.32H1695.02C1698.62 1741.32 1700.87 1740.19 1701.77 1737.94C1702.85 1735.69 1703.39 1731 1703.39 1723.87V1600.64C1703.39 1593.14 1702.85 1588.45 1701.77 1586.58C1700.87 1584.32 1698.62 1583.2 1695.02 1583.2H1613.24ZM1613.24 1774.52V1900H1589.76V1550H1705.28C1719.49 1550 1726.6 1564.82 1726.6 1594.45V1730.06C1726.6 1759.7 1719.49 1774.52 1705.28 1774.52H1689.35L1727.14 1900H1702.85L1665.33 1774.52H1613.24Z" fill="white"/>
<path d="M1799.07 1866.8H1893V1900H1775.05V1550H1889.22V1583.2H1799.07V1704.18H1878.16V1737.38H1799.07V1866.8Z" fill="white"/>
</svg>
